HIERARCHY
ROOT Hips
{
 OFFSET 0.000000 0.000000 0.000000
 CHANNELS 6 Xposition Yposition Zposition Yrotation Xrotation Zrotation
 JOINT Chest
 {
  OFFSET 0.000000 9.857222 0.000240
  CHANNELS 3 Yrotation Xrotation Zrotation
  JOINT Chest2
  {
   OFFSET 0.000000 10.876940 -0.000436
   CHANNELS 3 Yrotation Xrotation Zrotation
   JOINT Chest3
   {
    OFFSET 0.000000 9.827798 0.000000
    CHANNELS 3 Yrotation Xrotation Zrotation
    JOINT Chest4
    {
     OFFSET 0.000000 9.827798 0.000000
     CHANNELS 3 Yrotation Xrotation Zrotation
     JOINT Neck
     {
      OFFSET 0.000000 13.831992 0.000000
      CHANNELS 3 Yrotation Xrotation Zrotation
      JOINT Head
      {
       OFFSET 0.000000 9.147643 -0.001036
       CHANNELS 3 Yrotation Xrotation Zrotation
       End Site
       {
        OFFSET 0.000000 17.515799 -0.000541
       }
      }
     }
     JOINT RightCollar
     {
      OFFSET -3.001579 7.717577 0.000000
      CHANNELS 3 Yrotation Xrotation Zrotation
      JOINT RightShoulder
      {
       OFFSET -14.002642 0.000000 0.000000
       CHANNELS 3 Yrotation Xrotation Zrotation
       JOINT RightElbow
       {
        OFFSET -30.053852 0.000000 0.000000
        CHANNELS 3 Yrotation Xrotation Zrotation
        JOINT RightWrist
        {
         OFFSET -24.564923 0.000000 -0.000000
         CHANNELS 3 Yrotation Xrotation Zrotation
         End Site
         {
          OFFSET -18.334355 0.000000 0.000000
         }
        }
       }
      }
     }
     JOINT LeftCollar
     {
      OFFSET 3.001579 7.717577 0.000000
      CHANNELS 3 Yrotation Xrotation Zrotation
      JOINT LeftShoulder
      {
       OFFSET 14.002642 0.000000 0.000000
       CHANNELS 3 Yrotation Xrotation Zrotation
       JOINT LeftElbow
       {
        OFFSET 30.053852 0.000000 0.000000
        CHANNELS 3 Yrotation Xrotation Zrotation
        JOINT LeftWrist
        {
         OFFSET 24.564923 0.000000 -0.000000
         CHANNELS 3 Yrotation Xrotation Zrotation
         End Site
         {
          OFFSET 18.334355 0.000000 0.000000
         }
        }
       }
      }
     }
    }
   }
  }
 }
 JOINT RightHip
 {
  OFFSET -8.003235 -0.001175 -0.000120
  CHANNELS 3 Yrotation Xrotation Zrotation
  JOINT RightKnee
  {
   OFFSET 0.000000 -41.759727 0.000113
   CHANNELS 3 Yrotation Xrotation Zrotation
   JOINT RightAnkle
   {
    OFFSET 0.000000 -40.728748 0.000159
    CHANNELS 3 Yrotation Xrotation Zrotation
    JOINT RightToe
    {
     OFFSET 0.000000 -6.515296 14.732841
     CHANNELS 3 Yrotation Xrotation Zrotation
     End Site
     {
      OFFSET 0.000000 -1.502839 6.412115
     }
    }
   }
  }
 }
 JOINT LeftHip
 {
  OFFSET 8.003235 -0.001175 -0.000120
  CHANNELS 3 Yrotation Xrotation Zrotation
  JOINT LeftKnee
  {
   OFFSET 0.000000 -41.759727 0.000113
   CHANNELS 3 Yrotation Xrotation Zrotation
   JOINT LeftAnkle
   {
    OFFSET 0.000000 -40.728748 0.000159
    CHANNELS 3 Yrotation Xrotation Zrotation
    JOINT LeftToe
    {
     OFFSET 0.000000 -6.515296 14.732841
     CHANNELS 3 Yrotation Xrotation Zrotation
     End Site
     {
      OFFSET 0.000000 -1.502839 6.412115
     }
    }
   }
  }
 }
}
MOTION
Frames: 11
Frame Time: 0.016667
0.000000 88.822259 0.000000 0.000000 -5.826342 0.000000 0.000000 11.116423 0.000000 0.000000 -5.290081 0.000000 0.000000 0.000000 0.000000 0.000000 0.000000 0.000000 0.000000 12.665069 0.000000 0.000000 0.575450 0.000000 0.000000 0.000000 0.000000 0.000000 0.000000 0.000000 2.337306 0.000000 0.000000 -2.337306 0.000000 0.000000 0.000000 0.000000 0.000000 0.000000 0.000000 0.000000 -2.337306 0.000000 0.000000 2.337306 0.000000 0.000000 0.000000 8.578828 0.000000 0.000000 1.905768 0.000000 0.000000 -4.658254 0.000000 0.000000 0.000000 0.000000 0.000000 8.578828 0.000000 0.000000 1.905768 0.000000 0.000000 -4.658254 0.000000 0.000000 0.000000 0.000000
4.194045 90.092958 8.470265 -26.567453 -18.627054 -0.783590 0.739170 3.279330 1.882951 0.534636 1.424808 0.898510 0.534636 1.424808 0.898510 0.398863 1.069395 0.672602 -8.890910 25.546104 -0.870401 -15.692119 11.546169 0.493202 4.963967 21.192400 9.608423 38.642295 5.556421 69.507639 44.546318 -0.412208 5.904971 -0.044911 3.205117 -8.918804 -30.464347 22.303277 -22.998225 -19.024867 0.427751 -63.322040 -51.365216 -18.768136 8.971556 10.090816 5.231570 9.355722 -15.529036 15.125486 -2.537247 0.020188 8.498726 -5.182388 0.805917 -5.696773 2.502876 0.159504 0.164318 0.080349 -3.316481 23.633692 4.642655 3.067149 1.897119 -3.753437 -0.497093 -6.553815 -2.014004 -0.082970 -0.060050 -0.029838
4.200613 90.092099 8.467253 -26.577364 -18.629331 -0.791459 0.756096 3.305905 1.891667 0.541936 1.437872 0.902432 0.541936 1.437872 0.902432 0.404308 1.079208 0.675514 -8.918589 25.531073 -0.881712 -15.739435 11.519136 0.480859 4.976858 21.182680 9.606488 38.652312 5.531921 69.538893 44.799669 -0.594246 5.717131 -0.061170 3.189325 -8.867813 -30.426607 22.257681 -22.974462 -18.850972 0.432310 -63.238042 -52.126179 -18.052153 9.101529 10.266064 5.165231 9.363965 -15.558137 15.121029 -2.541422 0.037667 8.497045 -5.178412 0.820654 -5.684052 2.499094 0.162868 0.161982 0.079689 -3.338786 23.633900 4.636751 3.094410 1.905463 -3.749076 -0.501414 -6.558684 -2.015401 -0.084139 -0.059621 -0.030122
4.208661 90.091666 8.460512 -26.596908 -18.609342 -0.794875 0.782611 3.319080 1.903069 0.549208 1.445626 0.905871 0.549208 1.445626 0.905871 0.409742 1.085037 0.678069 -8.937770 25.519253 -0.899640 -15.769903 11.496600 0.454515 4.994970 21.177115 9.613998 38.678598 5.507656 69.568369 45.056045 -0.803581 5.523407 -0.065862 3.170264 -8.801056 -30.404498 22.220739 -22.963620 -18.864452 0.457510 -63.166423 -52.969346 -17.841126 9.422505 10.339598 5.162047 9.498697 -15.579545 15.097318 -2.536046 0.065178 8.494135 -5.179809 0.804234 -5.670587 2.503768 0.156710 0.159262 0.074557 -3.353366 23.605309 4.630625 3.123894 1.913975 -3.746663 -0.512595 -6.558077 -2.016362 -0.080412 -0.058592 -0.028255
4.214267 90.091155 8.450017 -26.598687 -18.597239 -0.800872 0.792195 3.336779 1.913112 0.553892 1.453324 0.908956 0.553892 1.453324 0.908956 0.413236 1.090821 0.680364 -8.947129 25.507333 -0.922392 -15.781673 11.472550 0.417423 5.017150 21.183092 9.629201 38.719993 5.468919 69.580724 45.300030 -1.017798 5.355970 -0.074322 3.154192 -8.747118 -30.392844 22.198942 -22.965051 -19.047427 0.502117 -63.089363 -53.782667 -17.870182 9.841976 10.359325 5.216014 9.684201 -15.609287 15.079567 -2.533363 0.089549 8.488595 -5.181174 0.807719 -5.659485 2.502111 0.161074 0.161833 0.074667 -3.393371 23.583004 4.616641 3.163133 1.924493 -3.739871 -0.494296 -6.558624 -2.021549 -0.078792 -0.055433 -0.028655
4.221806 90.091980 8.438851 -26.594971 -18.599003 -0.804972 0.796807 3.361393 1.919035 0.556000 1.464507 0.911499 0.556000 1.464507 0.911499 0.414794 1.099214 0.682255 -8.947048 25.496018 -0.946998 -15.776098 11.448682 0.374865 5.034026 21.186612 9.647150 38.788998 5.423563 69.581922 45.526807 -1.230477 5.185456 -0.095820 3.126177 -8.663729 -30.392167 22.179673 -22.972504 -19.332583 0.555702 -62.996904 -54.439641 -17.803831 10.245999 10.366550 5.263829 9.839647 -15.629418 15.077875 -2.534973 0.101733 8.481665 -5.179793 0.826319 -5.648427 2.500575 0.160459 0.162031 0.072259 -3.428498 23.571185 4.603371 3.198945 1.934978 -3.730835 -0.506433 -6.553547 -2.026565 -0.077568 -0.055896 -0.029037
4.228257 90.093738 8.428428 -26.575516 -18.604554 -0.808934 0.790725 3.392648 1.920607 0.554919 1.476941 0.912155 0.554919 1.476941 0.912155 0.413962 1.108538 0.682738 -8.939569 25.484292 -0.967317 -15.758298 11.424013 0.338329 5.048723 21.180696 9.671919 38.842306 5.366712 69.559065 45.746200 -1.458532 5.054989 -0.120610 3.111649 -8.568860 -30.405940 22.149453 -22.976690 -19.654275 0.590871 -62.926633 -54.868269 -17.461719 10.564678 10.372448 5.304494 9.941233 -15.663188 15.082322 -2.544331 0.118819 8.471111 -5.172863 0.818189 -5.635028 2.499104 0.159248 0.161298 0.069905 -3.474790 23.563375 4.583562 3.233625 1.943318 -3.716933 -0.527162 -6.545925 -2.032900 -0.073261 -0.057757 -0.028846
4.234822 90.095240 8.418857 -26.557425 -18.613707 -0.812423 0.780208 3.421950 1.922439 0.548016 1.488613 0.912714 0.548016 1.488613 0.912714 0.408766 1.117282 0.683162 -8.925585 25.480225 -0.989875 -15.728105 11.412761 0.295524 5.072938 21.178805 9.693957 38.880504 5.289978 69.527314 45.955324 -1.656846 4.972434 -0.138191 3.105663 -8.480250 -30.414471 22.126127 -22.987794 -19.938367 0.579171 -62.867613 -55.064889 -16.829027 10.741329 10.368797 5.320692 9.993072 -15.683750 15.089787 -2.553646 0.131397 8.462193 -5.168624 0.835942 -5.622911 2.501513 0.157175 0.159460 0.066853 -3.472224 23.560996 4.578644 3.236723 1.941755 -3.698325 -0.541565 -6.534452 -2.037914 -0.072202 -0.057766 -0.031914
4.240978 90.096380 8.409350 -26.546361 -18.619725 -0.817153 0.769146 3.451737 1.924843 0.538582 1.502275 0.912575 0.538582 1.502275 0.912575 0.401671 1.127514 0.683068 -8.905837 25.480774 -1.009335 -15.688193 11.409996 0.256443 5.103468 21.149806 9.720483 38.935923 5.216973 69.509602 46.147274 -1.816244 4.883072 -0.137581 3.093612 -8.377411 -30.413872 22.081316 -22.982991 -20.211092 0.555089 -62.825655 -55.114637 -16.128506 10.844432 10.358714 5.350700 10.055587 -15.679510 15.091726 -2.554082 0.135192 8.461679 -5.157781 0.821967 -5.612156 2.506449 0.145534 0.156108 0.058688 -3.433865 23.555312 4.592512 3.223308 1.940233 -3.683587 -0.571322 -6.524434 -2.045390 -0.061484 -0.057483 -0.030611
4.242318 90.096492 8.397108 -26.544707 -18.603747 -0.823903 0.759870 3.468751 1.930836 0.528674 1.510542 0.912046 0.528674 1.510542 0.912046 0.394229 1.133700 0.682689 -8.883538 25.491027 -1.023589 -15.644665 11.425618 0.225012 5.143302 21.106796 9.745785 38.996303 5.148072 69.513393 46.327333 -1.962824 4.804637 -0.138547 3.080481 -8.264958 -30.409590 22.014231 -22.969422 -20.452084 0.536799 -62.791997 -55.108481 -15.546730 10.907495 10.347255 5.387406 10.142897 -15.653539 15.068904 -2.536365 0.133035 8.469969 -5.151940 0.814896 -5.605573 2.506523 0.144722 0.152384 0.056128 -3.381169 23.531047 4.617685 3.206850 1.933704 -3.670393 -0.593055 -6.516394 -2.053240 -0.054731 -0.053563 -0.030871
4.239029 90.095070 8.381521 -26.595959 -18.567978 -0.830185 0.791960 3.472914 1.950665 0.519778 1.515565 0.911512 0.519778 1.515565 0.911512 0.387551 1.137453 0.682305 -8.862024 25.508495 -1.033254 -15.603421 11.455196 0.201149 5.190990 21.043500 9.770914 39.043598 5.086628 69.541209 46.496548 -2.105120 4.741253 -0.145031 3.073255 -8.123322 -30.413379 21.953696 -22.961052 -20.640726 0.482703 -62.745510 -55.084485 -15.161485 10.932916 10.342283 5.453606 10.245931 -15.568487 15.029454 -2.489102 0.130247 8.483179 -5.149875 0.819545 -5.607357 2.512552 0.119772 0.152685 0.043974 -3.265307 23.488621 4.665064 3.193125 1.926672 -3.655739 -0.605552 -6.507945 -2.064129 -0.050705 -0.050479 -0.031561
